<?xml version="1.0" standalone="no"?>
<!DOCTYPE svg PUBLIC "-//W3C//DTD SVG 20010904//EN"
 "http://www.w3.org/TR/2001/REC-SVG-20010904/DTD/svg10.dtd">
<svg version="1.0" xmlns="http://www.w3.org/2000/svg"
 width="600.000000pt" height="56.000000pt" viewBox="0 0 600.000000 56.000000"
 preserveAspectRatio="xMidYMid meet">

<g transform="translate(0.000000,56.000000) scale(0.100000,-0.100000)"
fill="#000000" stroke="none">
<path d="M0 285 l0 -275 80 0 79 0 3 116 3 117 73 -117 74 -116 89 0 c49 0 89
3 89 6 0 3 -41 65 -90 136 -50 72 -92 134 -93 138 -1 5 40 64 91 133 50 68 92
127 92 131 0 9 -163 7 -176 -2 -6 -4 -43 -54 -82 -111 l-71 -103 -3 108 -3
109 -77 3 -78 3 0 -276z"/>
<path d="M537 554 c-4 -4 -7 -34 -7 -66 l0 -58 110 0 c61 0 110 -4 110 -8 0
-5 -49 -80 -110 -168 -98 -141 -110 -164 -110 -201 l0 -43 220 0 221 0 -3 63
-3 62 -113 5 -113 5 111 165 c101 150 111 168 108 205 l-3 40 -206 3 c-113 1
-208 -1 -212 -4z"/>
<path d="M1010 285 l0 -275 75 0 75 0 2 163 3 162 56 -160 56 -160 58 -3 c40
-2 61 1 66 10 5 7 32 83 61 168 l53 155 3 -167 2 -168 75 0 75 0 0 275 0 275
-104 0 -104 0 -58 -172 c-31 -95 -59 -177 -62 -182 -3 -5 -33 72 -67 170 l-62
179 -101 3 -102 3 0 -276z"/>
<path d="M2110 551 c-69 -21 -132 -75 -165 -141 -10 -19 -20 -67 -23 -106 -8
-126 40 -218 142 -272 46 -24 62 -27 151 -27 109 0 157 16 218 74 56 51 72 96
72 201 0 106 -14 148 -69 202 -54 55 -119 78 -216 77 -47 0 -96 -4 -110 -8z
m180 -137 c59 -36 84 -140 50 -209 -46 -91 -187 -99 -239 -14 -44 72 -34 156
24 208 30 26 44 31 86 31 29 0 63 -7 79 -16z"/>
<path d="M2560 377 c0 -220 9 -257 76 -316 94 -83 254 -83 349 1 65 57 75 100
75 320 l0 179 -77 -3 -78 -3 -5 -188 -5 -189 -28 -24 c-36 -31 -78 -31 -114 0
l-28 24 -5 189 -5 188 -77 3 -78 3 0 -184z"/>
<path d="M3110 490 l0 -70 80 0 80 0 0 -205 0 -205 80 0 80 0 0 205 0 204 83
3 82 3 0 65 0 65 -242 3 -243 2 0 -70z"/>
<path d="M3650 286 l0 -278 153 4 c177 4 229 20 295 92 49 54 67 103 66 187
-2 89 -39 161 -107 206 -67 45 -102 53 -264 60 l-143 6 0 -277z m296 125 c44
-27 67 -82 62 -143 -9 -86 -69 -138 -160 -138 l-48 0 0 150 0 150 58 0 c38 0
67 -6 88 -19z"/>
<path d="M4384 544 c-57 -20 -118 -75 -145 -132 -36 -72 -34 -187 4 -264 50
-102 155 -155 291 -146 171 11 270 113 270 278 0 131 -63 227 -172 264 -57 20
-192 20 -248 0z m204 -134 c56 -34 81 -135 48 -198 -53 -103 -195 -109 -248
-11 -22 41 -24 119 -3 159 36 70 131 94 203 50z"/>
<path d="M5025 544 c-59 -21 -112 -68 -142 -128 -23 -43 -27 -64 -27 -131 0
-126 51 -211 154 -259 64 -30 216 -30 280 0 103 48 154 133 154 259 0 67 -4
88 -27 131 -31 61 -84 108 -146 129 -56 19 -192 19 -246 -1z m216 -140 c49
-44 64 -141 31 -203 -50 -93 -189 -94 -240 -2 -41 72 -22 173 40 211 43 27
136 24 169 -6z"/>
<path d="M5500 286 l0 -276 80 0 80 0 0 90 c0 120 14 120 99 0 l65 -90 88 0
89 0 -76 91 c-71 86 -82 109 -50 109 22 0 77 52 91 87 28 67 12 155 -37 200
-50 46 -94 56 -266 61 l-163 5 0 -277z m289 139 c36 -18 47 -59 26 -92 -20
-30 -53 -43 -111 -43 l-44 0 0 75 0 75 50 0 c28 0 64 -7 79 -15z"/>
</g>
</svg>
